# xmcd CD database file generated by OrangeCD 5.0
#
# Track frame offsets:
#	150
#	13749
#	24613
#	37003
#	49932
#	62473
#	74940
#	86582
#	99682
#	111153
#	121947
#	134976
#	147464
#	160084
#	172698
#	183934
#	196548
#	208917
#	222256
#	233042
#	246241
#	257818
#	269623
#	281122
#
# Disc length: 3931 seconds
#
# Revision: 2
# Processed by: cddbd v1.4PL0 Copyright (c) Steve Scherf et al.
# Submitted via: OrangeCD 5.0
#
DISCID=750f5918
DTITLE=Brown, Charles - The Classic Earliest Recordings (1948, Los Angeles) (Di
DTITLE=sc Four)
DYEAR=2003
DGENRE=Blues
TTITLE0=I'm So Happy I Could Cry
TTITLE1=If You Don't Why Don't Cha
TTITLE2=Scratch Sheet
TTITLE3=Jilted Blues
TTITLE4=Tomorrow
TTITLE5=So There
TTITLE6=Groovy Movie Blues
TTITLE7=You Better Change Your Way Of Lovin'
TTITLE8=Free Lancin' Again
TTITLE9=Any Old Place With Me
TTITLE10=I Hate Myself
TTITLE11=If I Had You
TTITLE12=Friendless Blues
TTITLE13=Walkin' In Circles
TTITLE14=Cold In Here
TTITLE15=Love Me Tonight
TTITLE16=Snuff Drippin' Mama
TTITLE17=B and O Blues
TTITLE18=Teresa
TTITLE19=Where Can I Find My Baby
TTITLE20=Honey Keep Your Mind On Me
TTITLE21=Foolish
TTITLE22=My Last Affair
TTITLE23=Homesick Blues
EXTD=
EXTT0=
EXTT1=
EXTT2=
EXTT3=
EXTT4=
EXTT5=
EXTT6=
EXTT7=
EXTT8=
EXTT9=
EXTT10=
EXTT11=
EXTT12=
EXTT13=
EXTT14=
EXTT15=
EXTT16=
EXTT17=
EXTT18=
EXTT19=
EXTT20=
EXTT21=
EXTT22=
EXTT23=
PLAYORDER=
